<svg xmlns="http://www.w3.org/2000/svg" width="31" height="32" fill="none"><path fill="#3D4A39" d="M15.683.957c4.108 0 7.629 1.468 10.569 4.391 2.94 2.93 4.407 6.444 4.407 10.556 0 4.117-1.466 7.626-4.407 10.53-.399.394-.808.76-1.228 1.1-6.92-3.575-14.228-5.284-14.379-11.625 1.273 2.545 2.007 3.948 4.747 5.318.218-.327.45-.72.684-1.03 1.176-1.56 1.423-.959 4.061-1.538 2.217-.485 2.72-1.468 2.879-3.942-2.015-1.722-1.435-.533-2.677-3.337-.763-1.722-1.406-1.863-3.43-2.295l.206-3.404c-4.548 1.073-7.721 4.896-9.315 9.128-1.99 5.284-1.381 8.85-.384 13.522a15.865 15.865 0 0 1-2.31-1.896C2.186 23.518.719 20.01.719 15.905c0-4.1 1.467-7.614 4.389-10.556C8.047 2.425 11.567.958 15.682.958V.957Z"/><path fill="#3D4A39" d="m18.978 8.223.26-.624c1.097.455 2.101 1.135 3.01 2.04l-.002.001c.919.913 1.607 1.916 2.066 3.01.46 1.097.688 2.282.688 3.554 0 1.284-.23 2.474-.69 3.57-.46 1.095-1.147 2.092-2.065 2.99-.914.901-1.919 1.576-3.012 2.026-1.098.453-2.282.678-3.55.678-1.288 0-2.483-.224-3.585-.676-1.1-.45-2.101-1.127-3.004-2.03v.002c-.91-.905-1.592-1.906-2.05-3.003-.456-1.095-.685-2.281-.685-3.557a9.13 9.13 0 0 1 .685-3.542c.456-1.095 1.139-2.102 2.047-3.02.898-.907 1.896-1.588 2.996-2.043l.26.624c-1.016.42-1.94 1.052-2.773 1.892-.846.855-1.48 1.79-1.904 2.806a8.475 8.475 0 0 0-.632 3.283c0 1.188.211 2.287.633 3.298.422 1.011 1.057 1.94 1.902 2.783v.001c.839.839 1.767 1.466 2.782 1.883 1.015.416 2.124.623 3.327.623 1.182 0 2.28-.207 3.292-.625 1.011-.417 1.943-1.044 2.793-1.882h.001c.853-.835 1.49-1.758 1.915-2.768.424-1.012.636-2.116.636-3.312 0-1.184-.21-2.282-.635-3.295-.425-1.013-1.063-1.944-1.918-2.792-.847-.843-1.777-1.476-2.789-1.895h.001ZM15.683.957c2.098 0 4.048.376 5.853 1.126 1.802.75 3.454 1.872 4.955 3.365h.001c1.501 1.495 2.628 3.143 3.38 4.944.752 1.801 1.128 3.75 1.128 5.85 0 2.102-.377 4.052-1.128 5.85-.751 1.796-1.878 3.436-3.38 4.92-1.496 1.477-3.145 2.586-4.948 3.325-1.805.74-3.758 1.11-5.861 1.11-2.112-.007-4.071-.38-5.875-1.12-1.804-.74-3.451-1.844-4.94-3.314v-.001c-1.493-1.49-2.614-3.133-3.363-4.928C.755 20.287.38 18.34.38 16.244c0-2.094.376-4.04 1.125-5.842.749-1.798 1.87-3.448 3.363-4.952C6.37 3.956 8.023 2.833 9.827 2.084c1.804-.75 3.756-1.126 5.858-1.126l-.001-.002Zm5.592 1.75c-1.719-.715-3.582-1.074-5.592-1.074-2.013 0-3.878.358-5.598 1.073-1.72.716-3.3 1.79-4.738 3.22C3.92 7.363 2.845 8.941 2.131 10.66c-.715 1.716-1.072 3.577-1.072 5.582 0 2.009.358 3.869 1.072 5.58.714 1.714 1.787 3.285 3.216 4.712 1.426 1.407 2.998 2.463 4.718 3.168 1.723.707 3.596 1.063 5.618 1.068v-.002c2.017 0 3.885-.352 5.603-1.056 1.72-.705 3.295-1.764 4.727-3.18 1.438-1.42 2.515-2.987 3.233-4.7.716-1.713 1.074-3.576 1.074-5.591 0-2.011-.358-3.875-1.074-5.592-.717-1.716-1.795-3.291-3.234-4.725h.001c-1.438-1.43-3.017-2.504-4.738-3.22v.002Z"/><path fill="#DDD5C1" d="m12.318 8.15.03.073a6.657 6.657 0 0 0-.23.1c-1.942 1.72-3.396 4.034-4.318 6.485a22.537 22.537 0 0 0-.723 2.256c.078.863.276 1.676.594 2.438.422 1.011 1.057 1.94 1.902 2.783v.001c.839.839 1.767 1.466 2.782 1.883 1.015.416 2.124.623 3.327.623a8.76 8.76 0 0 0 2.678-.4c-4.279-2.05-7.614-4.22-7.716-8.484 1.273 2.546 2.007 3.948 4.747 5.318.218-.327.45-.72.684-1.028 1.176-1.562 1.423-.96 4.061-1.539 2.217-.485 2.72-1.468 2.879-3.942-2.015-1.722-1.435-.533-2.677-3.337-.763-1.722-1.405-1.863-3.43-2.295l.206-3.404c-1.825.431-3.429 1.305-4.797 2.47v-.002Z"/><path fill="#AE7B3C" d="M19.22 24.797c-1.095.448-2.274.672-3.537.672-1.288 0-2.483-.225-3.585-.676-1.1-.45-2.101-1.127-3.004-2.03v.002c-.91-.906-1.592-1.906-2.05-3.003a8.617 8.617 0 0 1-.336-.963c-.533 3.29-.026 6.087.69 9.45a13.901 13.901 0 0 0 2.666 1.455c1.723.707 3.596 1.063 5.618 1.068v-.001c2.017 0 3.885-.352 5.603-1.056a14.134 14.134 0 0 0 3.665-2.217c-1.937-.997-3.903-1.85-5.731-2.7v-.001Z"/></svg>